<mxfile host="app.diagrams.net" modified="2023-11-24T00:55:47.144Z" agent="Mozilla/5.0 (Windows NT 10.0; Win64; x64) AppleWebKit/537.36 (KHTML, like Gecko) Chrome/119.0.0.0 Safari/537.36" etag="yZ0Q_Ryc7G8Qs1FQYUpK" version="22.1.3" type="device">
  <diagram name="페이지-1" id="cCwl8LIfKbvLRUa88UwK">
    <mxGraphModel dx="2796" dy="2061" grid="1" gridSize="10" guides="1" tooltips="1" connect="1" arrows="1" fold="1" page="1" pageScale="1" pageWidth="827" pageHeight="1169" math="0" shadow="0">
      <root>
        <mxCell id="0" />
        <mxCell id="1" parent="0" />
        <mxCell id="GMJXgt1-yGZznmfCa1Dr-4" value="" style="whiteSpace=wrap;html=1;aspect=fixed;fillColor=#141414;" parent="1" vertex="1">
          <mxGeometry x="-570" y="-80" width="1200" height="1200" as="geometry" />
        </mxCell>
        <mxCell id="FIubQ1Pt_erhtiENu1x_-14" value="user" style="shape=table;startSize=30;container=1;collapsible=1;childLayout=tableLayout;fixedRows=1;rowLines=0;fontStyle=1;align=center;resizeLast=1;html=1;fillColor=#02BF53;strokeColor=##02BF53;strokeWidth=2;swimlaneFillColor=#E6E6E6;labelBackgroundColor=none;fontColor=#1A1A1A;rounded=0;" parent="1" vertex="1">
          <mxGeometry x="-420" y="250" width="240" height="180" as="geometry" />
        </mxCell>
        <mxCell id="FIubQ1Pt_erhtiENu1x_-18" value="" style="shape=tableRow;horizontal=0;startSize=0;swimlaneHead=0;swimlaneBody=0;fillColor=none;collapsible=0;dropTarget=0;points=[[0,0.5],[1,0.5]];portConstraint=eastwest;top=0;left=0;right=0;bottom=0;fontStyle=1;swimlaneFillColor=#E6E6E6;strokeWidth=2;labelBackgroundColor=none;strokeColor=#FFFFFF;fontColor=#1A1A1A;rounded=0;" parent="FIubQ1Pt_erhtiENu1x_-14" vertex="1">
          <mxGeometry y="30" width="240" height="30" as="geometry" />
        </mxCell>
        <mxCell id="FIubQ1Pt_erhtiENu1x_-19" value="&lt;i&gt;PK&lt;/i&gt;" style="shape=partialRectangle;connectable=0;fillColor=none;top=0;left=0;bottom=0;right=0;editable=1;overflow=hidden;whiteSpace=wrap;html=1;fontStyle=1;swimlaneFillColor=#E6E6E6;strokeWidth=2;labelBackgroundColor=none;strokeColor=#FFFFFF;fontColor=#1A1A1A;rounded=0;" parent="FIubQ1Pt_erhtiENu1x_-18" vertex="1">
          <mxGeometry width="30" height="30" as="geometry">
            <mxRectangle width="30" height="30" as="alternateBounds" />
          </mxGeometry>
        </mxCell>
        <mxCell id="FIubQ1Pt_erhtiENu1x_-20" value="user_id VARCHAR(50) &lt;font color=&quot;#ff1900&quot;&gt;N.N&lt;/font&gt;" style="shape=partialRectangle;connectable=0;fillColor=none;top=0;left=0;bottom=0;right=0;align=left;spacingLeft=6;overflow=hidden;whiteSpace=wrap;html=1;fontStyle=1;swimlaneFillColor=#E6E6E6;strokeWidth=2;labelBackgroundColor=none;strokeColor=#FFFFFF;fontColor=#1A1A1A;rounded=0;" parent="FIubQ1Pt_erhtiENu1x_-18" vertex="1">
          <mxGeometry x="30" width="210" height="30" as="geometry">
            <mxRectangle width="210" height="30" as="alternateBounds" />
          </mxGeometry>
        </mxCell>
        <mxCell id="FIubQ1Pt_erhtiENu1x_-21" value="" style="shape=tableRow;horizontal=0;startSize=0;swimlaneHead=0;swimlaneBody=0;fillColor=none;collapsible=0;dropTarget=0;points=[[0,0.5],[1,0.5]];portConstraint=eastwest;top=0;left=0;right=0;bottom=0;fontStyle=1;swimlaneFillColor=#E6E6E6;strokeWidth=2;labelBackgroundColor=none;strokeColor=#FFFFFF;fontColor=#1A1A1A;rounded=0;" parent="FIubQ1Pt_erhtiENu1x_-14" vertex="1">
          <mxGeometry y="60" width="240" height="30" as="geometry" />
        </mxCell>
        <mxCell id="FIubQ1Pt_erhtiENu1x_-22" value="" style="shape=partialRectangle;connectable=0;fillColor=none;top=0;left=0;bottom=0;right=0;editable=1;overflow=hidden;whiteSpace=wrap;html=1;fontStyle=1;swimlaneFillColor=#E6E6E6;strokeWidth=2;labelBackgroundColor=none;strokeColor=#FFFFFF;fontColor=#1A1A1A;rounded=0;" parent="FIubQ1Pt_erhtiENu1x_-21" vertex="1">
          <mxGeometry width="30" height="30" as="geometry">
            <mxRectangle width="30" height="30" as="alternateBounds" />
          </mxGeometry>
        </mxCell>
        <mxCell id="FIubQ1Pt_erhtiENu1x_-23" value="password VARCHAR(300) &lt;font color=&quot;#ff1900&quot;&gt;N.N&lt;/font&gt;" style="shape=partialRectangle;connectable=0;fillColor=none;top=0;left=0;bottom=0;right=0;align=left;spacingLeft=6;overflow=hidden;whiteSpace=wrap;html=1;fontStyle=1;swimlaneFillColor=#E6E6E6;strokeWidth=2;labelBackgroundColor=none;strokeColor=#FFFFFF;fontColor=#1A1A1A;rounded=0;" parent="FIubQ1Pt_erhtiENu1x_-21" vertex="1">
          <mxGeometry x="30" width="210" height="30" as="geometry">
            <mxRectangle width="210" height="30" as="alternateBounds" />
          </mxGeometry>
        </mxCell>
        <mxCell id="FIubQ1Pt_erhtiENu1x_-71" value="" style="shape=tableRow;horizontal=0;startSize=0;swimlaneHead=0;swimlaneBody=0;fillColor=none;collapsible=0;dropTarget=0;points=[[0,0.5],[1,0.5]];portConstraint=eastwest;top=0;left=0;right=0;bottom=0;fontStyle=1;swimlaneFillColor=#E6E6E6;strokeWidth=2;labelBackgroundColor=none;strokeColor=#FFFFFF;fontColor=#1A1A1A;rounded=0;" parent="FIubQ1Pt_erhtiENu1x_-14" vertex="1">
          <mxGeometry y="90" width="240" height="30" as="geometry" />
        </mxCell>
        <mxCell id="FIubQ1Pt_erhtiENu1x_-72" value="" style="shape=partialRectangle;connectable=0;fillColor=none;top=0;left=0;bottom=0;right=0;editable=1;overflow=hidden;whiteSpace=wrap;html=1;fontStyle=1;swimlaneFillColor=#E6E6E6;strokeWidth=2;labelBackgroundColor=none;strokeColor=#FFFFFF;fontColor=#1A1A1A;rounded=0;" parent="FIubQ1Pt_erhtiENu1x_-71" vertex="1">
          <mxGeometry width="30" height="30" as="geometry">
            <mxRectangle width="30" height="30" as="alternateBounds" />
          </mxGeometry>
        </mxCell>
        <mxCell id="FIubQ1Pt_erhtiENu1x_-73" value="name VARCHAR(50) &lt;font color=&quot;#ff1900&quot;&gt;N.N&lt;/font&gt;" style="shape=partialRectangle;connectable=0;fillColor=none;top=0;left=0;bottom=0;right=0;align=left;spacingLeft=6;overflow=hidden;whiteSpace=wrap;html=1;fontStyle=1;swimlaneFillColor=#E6E6E6;strokeWidth=2;labelBackgroundColor=none;strokeColor=#FFFFFF;fontColor=#1A1A1A;rounded=0;" parent="FIubQ1Pt_erhtiENu1x_-71" vertex="1">
          <mxGeometry x="30" width="210" height="30" as="geometry">
            <mxRectangle width="210" height="30" as="alternateBounds" />
          </mxGeometry>
        </mxCell>
        <mxCell id="FIubQ1Pt_erhtiENu1x_-77" value="" style="shape=tableRow;horizontal=0;startSize=0;swimlaneHead=0;swimlaneBody=0;fillColor=none;collapsible=0;dropTarget=0;points=[[0,0.5],[1,0.5]];portConstraint=eastwest;top=0;left=0;right=0;bottom=0;fontStyle=1;swimlaneFillColor=#E6E6E6;strokeWidth=2;labelBackgroundColor=none;strokeColor=#FFFFFF;fontColor=#1A1A1A;rounded=0;" parent="FIubQ1Pt_erhtiENu1x_-14" vertex="1">
          <mxGeometry y="120" width="240" height="30" as="geometry" />
        </mxCell>
        <mxCell id="FIubQ1Pt_erhtiENu1x_-78" value="" style="shape=partialRectangle;connectable=0;fillColor=none;top=0;left=0;bottom=0;right=0;editable=1;overflow=hidden;whiteSpace=wrap;html=1;fontStyle=1;swimlaneFillColor=#E6E6E6;strokeWidth=2;labelBackgroundColor=none;strokeColor=#FFFFFF;fontColor=#1A1A1A;rounded=0;" parent="FIubQ1Pt_erhtiENu1x_-77" vertex="1">
          <mxGeometry width="30" height="30" as="geometry">
            <mxRectangle width="30" height="30" as="alternateBounds" />
          </mxGeometry>
        </mxCell>
        <mxCell id="FIubQ1Pt_erhtiENu1x_-79" value="nickname VARCHAR(50) &lt;font color=&quot;#ff1900&quot;&gt;N.N&lt;/font&gt;" style="shape=partialRectangle;connectable=0;fillColor=none;top=0;left=0;bottom=0;right=0;align=left;spacingLeft=6;overflow=hidden;whiteSpace=wrap;html=1;fontStyle=1;swimlaneFillColor=#E6E6E6;strokeWidth=2;labelBackgroundColor=none;strokeColor=#FFFFFF;fontColor=#1A1A1A;rounded=0;" parent="FIubQ1Pt_erhtiENu1x_-77" vertex="1">
          <mxGeometry x="30" width="210" height="30" as="geometry">
            <mxRectangle width="210" height="30" as="alternateBounds" />
          </mxGeometry>
        </mxCell>
        <mxCell id="FIubQ1Pt_erhtiENu1x_-80" value="" style="shape=tableRow;horizontal=0;startSize=0;swimlaneHead=0;swimlaneBody=0;fillColor=none;collapsible=0;dropTarget=0;points=[[0,0.5],[1,0.5]];portConstraint=eastwest;top=0;left=0;right=0;bottom=0;fontStyle=1;swimlaneFillColor=#E6E6E6;strokeWidth=2;labelBackgroundColor=none;strokeColor=#FFFFFF;fontColor=#1A1A1A;rounded=0;" parent="FIubQ1Pt_erhtiENu1x_-14" vertex="1">
          <mxGeometry y="150" width="240" height="30" as="geometry" />
        </mxCell>
        <mxCell id="FIubQ1Pt_erhtiENu1x_-81" value="" style="shape=partialRectangle;connectable=0;fillColor=none;top=0;left=0;bottom=0;right=0;editable=1;overflow=hidden;whiteSpace=wrap;html=1;fontStyle=1;swimlaneFillColor=#E6E6E6;strokeWidth=2;labelBackgroundColor=none;strokeColor=#FFFFFF;fontColor=#1A1A1A;rounded=0;" parent="FIubQ1Pt_erhtiENu1x_-80" vertex="1">
          <mxGeometry width="30" height="30" as="geometry">
            <mxRectangle width="30" height="30" as="alternateBounds" />
          </mxGeometry>
        </mxCell>
        <mxCell id="FIubQ1Pt_erhtiENu1x_-82" value="birthdate VARCHAR(50)" style="shape=partialRectangle;connectable=0;fillColor=none;top=0;left=0;bottom=0;right=0;align=left;spacingLeft=6;overflow=hidden;whiteSpace=wrap;html=1;fontStyle=1;swimlaneFillColor=#E6E6E6;strokeWidth=2;labelBackgroundColor=none;strokeColor=#FFFFFF;fontColor=#1A1A1A;rounded=0;" parent="FIubQ1Pt_erhtiENu1x_-80" vertex="1">
          <mxGeometry x="30" width="210" height="30" as="geometry">
            <mxRectangle width="210" height="30" as="alternateBounds" />
          </mxGeometry>
        </mxCell>
        <mxCell id="FIubQ1Pt_erhtiENu1x_-27" value="review" style="shape=table;startSize=30;container=1;collapsible=1;childLayout=tableLayout;fixedRows=1;rowLines=0;fontStyle=1;align=center;resizeLast=1;html=1;fillColor=#02BF53;strokeColor=##02BF53;strokeWidth=2;swimlaneFillColor=#E6E6E6;labelBackgroundColor=none;fontColor=#1A1A1A;rounded=0;" parent="1" vertex="1">
          <mxGeometry x="174" y="584" width="240" height="240" as="geometry" />
        </mxCell>
        <mxCell id="FIubQ1Pt_erhtiENu1x_-31" value="" style="shape=tableRow;horizontal=0;startSize=0;swimlaneHead=0;swimlaneBody=0;fillColor=none;collapsible=0;dropTarget=0;points=[[0,0.5],[1,0.5]];portConstraint=eastwest;top=0;left=0;right=0;bottom=0;fontStyle=1;strokeWidth=2;swimlaneFillColor=#E6E6E6;labelBackgroundColor=none;strokeColor=#FFFFFF;fontColor=#1A1A1A;rounded=0;" parent="FIubQ1Pt_erhtiENu1x_-27" vertex="1">
          <mxGeometry y="30" width="240" height="30" as="geometry" />
        </mxCell>
        <mxCell id="FIubQ1Pt_erhtiENu1x_-32" value="&lt;i&gt;PK&lt;/i&gt;" style="shape=partialRectangle;connectable=0;fillColor=none;top=0;left=0;bottom=0;right=0;editable=1;overflow=hidden;whiteSpace=wrap;html=1;fontStyle=1;strokeWidth=2;swimlaneFillColor=#E6E6E6;labelBackgroundColor=none;strokeColor=#FFFFFF;fontColor=#1A1A1A;rounded=0;" parent="FIubQ1Pt_erhtiENu1x_-31" vertex="1">
          <mxGeometry width="30" height="30" as="geometry">
            <mxRectangle width="30" height="30" as="alternateBounds" />
          </mxGeometry>
        </mxCell>
        <mxCell id="FIubQ1Pt_erhtiENu1x_-33" value="review_id INT &lt;font color=&quot;#0000ff&quot;&gt;A.C&lt;/font&gt; &lt;font color=&quot;#ff1900&quot;&gt;N.N&lt;/font&gt;" style="shape=partialRectangle;connectable=0;fillColor=none;top=0;left=0;bottom=0;right=0;align=left;spacingLeft=6;overflow=hidden;whiteSpace=wrap;html=1;fontStyle=1;strokeWidth=2;swimlaneFillColor=#E6E6E6;labelBackgroundColor=none;strokeColor=#FFFFFF;fontColor=#1A1A1A;rounded=0;" parent="FIubQ1Pt_erhtiENu1x_-31" vertex="1">
          <mxGeometry x="30" width="210" height="30" as="geometry">
            <mxRectangle width="210" height="30" as="alternateBounds" />
          </mxGeometry>
        </mxCell>
        <mxCell id="FIubQ1Pt_erhtiENu1x_-34" value="" style="shape=tableRow;horizontal=0;startSize=0;swimlaneHead=0;swimlaneBody=0;fillColor=none;collapsible=0;dropTarget=0;points=[[0,0.5],[1,0.5]];portConstraint=eastwest;top=0;left=0;right=0;bottom=0;fontStyle=1;strokeWidth=2;swimlaneFillColor=#E6E6E6;labelBackgroundColor=none;strokeColor=#FFFFFF;fontColor=#1A1A1A;rounded=0;" parent="FIubQ1Pt_erhtiENu1x_-27" vertex="1">
          <mxGeometry y="60" width="240" height="30" as="geometry" />
        </mxCell>
        <mxCell id="FIubQ1Pt_erhtiENu1x_-35" value="&lt;i&gt;FK&lt;/i&gt;" style="shape=partialRectangle;connectable=0;fillColor=none;top=0;left=0;bottom=0;right=0;editable=1;overflow=hidden;whiteSpace=wrap;html=1;fontStyle=1;strokeWidth=2;swimlaneFillColor=#E6E6E6;labelBackgroundColor=none;strokeColor=#FFFFFF;fontColor=#1A1A1A;rounded=0;" parent="FIubQ1Pt_erhtiENu1x_-34" vertex="1">
          <mxGeometry width="30" height="30" as="geometry">
            <mxRectangle width="30" height="30" as="alternateBounds" />
          </mxGeometry>
        </mxCell>
        <mxCell id="FIubQ1Pt_erhtiENu1x_-36" value="user_id VARCHAR(50) &lt;font color=&quot;#ff1900&quot;&gt;N.N&lt;/font&gt;" style="shape=partialRectangle;connectable=0;fillColor=none;top=0;left=0;bottom=0;right=0;align=left;spacingLeft=6;overflow=hidden;whiteSpace=wrap;html=1;fontStyle=1;strokeWidth=2;swimlaneFillColor=#E6E6E6;labelBackgroundColor=none;strokeColor=#FFFFFF;fontColor=#1A1A1A;rounded=0;" parent="FIubQ1Pt_erhtiENu1x_-34" vertex="1">
          <mxGeometry x="30" width="210" height="30" as="geometry">
            <mxRectangle width="210" height="30" as="alternateBounds" />
          </mxGeometry>
        </mxCell>
        <mxCell id="FIubQ1Pt_erhtiENu1x_-37" value="" style="shape=tableRow;horizontal=0;startSize=0;swimlaneHead=0;swimlaneBody=0;fillColor=none;collapsible=0;dropTarget=0;points=[[0,0.5],[1,0.5]];portConstraint=eastwest;top=0;left=0;right=0;bottom=0;fontStyle=1;strokeWidth=2;swimlaneFillColor=#E6E6E6;labelBackgroundColor=none;strokeColor=#FFFFFF;fontColor=#1A1A1A;rounded=0;" parent="FIubQ1Pt_erhtiENu1x_-27" vertex="1">
          <mxGeometry y="90" width="240" height="30" as="geometry" />
        </mxCell>
        <mxCell id="FIubQ1Pt_erhtiENu1x_-38" value="&lt;i&gt;FK&lt;/i&gt;" style="shape=partialRectangle;connectable=0;fillColor=none;top=0;left=0;bottom=0;right=0;editable=1;overflow=hidden;whiteSpace=wrap;html=1;fontStyle=1;strokeWidth=2;swimlaneFillColor=#E6E6E6;labelBackgroundColor=none;strokeColor=#FFFFFF;fontColor=#1A1A1A;rounded=0;" parent="FIubQ1Pt_erhtiENu1x_-37" vertex="1">
          <mxGeometry width="30" height="30" as="geometry">
            <mxRectangle width="30" height="30" as="alternateBounds" />
          </mxGeometry>
        </mxCell>
        <mxCell id="FIubQ1Pt_erhtiENu1x_-39" value="video_id INT&amp;nbsp;&lt;font color=&quot;#ff1900&quot;&gt;N.N&lt;/font&gt;" style="shape=partialRectangle;connectable=0;fillColor=none;top=0;left=0;bottom=0;right=0;align=left;spacingLeft=6;overflow=hidden;whiteSpace=wrap;html=1;fontStyle=1;strokeWidth=2;swimlaneFillColor=#E6E6E6;labelBackgroundColor=none;strokeColor=#FFFFFF;fontColor=#1A1A1A;rounded=0;" parent="FIubQ1Pt_erhtiENu1x_-37" vertex="1">
          <mxGeometry x="30" width="210" height="30" as="geometry">
            <mxRectangle width="210" height="30" as="alternateBounds" />
          </mxGeometry>
        </mxCell>
        <mxCell id="FIubQ1Pt_erhtiENu1x_-107" value="" style="shape=tableRow;horizontal=0;startSize=0;swimlaneHead=0;swimlaneBody=0;fillColor=none;collapsible=0;dropTarget=0;points=[[0,0.5],[1,0.5]];portConstraint=eastwest;top=0;left=0;right=0;bottom=0;fontStyle=1;strokeWidth=2;swimlaneFillColor=#E6E6E6;labelBackgroundColor=none;strokeColor=#FFFFFF;fontColor=#1A1A1A;rounded=0;" parent="FIubQ1Pt_erhtiENu1x_-27" vertex="1">
          <mxGeometry y="120" width="240" height="30" as="geometry" />
        </mxCell>
        <mxCell id="FIubQ1Pt_erhtiENu1x_-108" value="" style="shape=partialRectangle;connectable=0;fillColor=none;top=0;left=0;bottom=0;right=0;editable=1;overflow=hidden;whiteSpace=wrap;html=1;fontStyle=1;strokeWidth=2;swimlaneFillColor=#E6E6E6;labelBackgroundColor=none;strokeColor=#FFFFFF;fontColor=#1A1A1A;rounded=0;" parent="FIubQ1Pt_erhtiENu1x_-107" vertex="1">
          <mxGeometry width="30" height="30" as="geometry">
            <mxRectangle width="30" height="30" as="alternateBounds" />
          </mxGeometry>
        </mxCell>
        <mxCell id="FIubQ1Pt_erhtiENu1x_-109" value="title VARCHAR(300) &lt;font color=&quot;#ff1900&quot;&gt;N.N&lt;/font&gt;" style="shape=partialRectangle;connectable=0;fillColor=none;top=0;left=0;bottom=0;right=0;align=left;spacingLeft=6;overflow=hidden;whiteSpace=wrap;html=1;fontStyle=1;strokeWidth=2;swimlaneFillColor=#E6E6E6;labelBackgroundColor=none;strokeColor=#FFFFFF;fontColor=#1A1A1A;rounded=0;" parent="FIubQ1Pt_erhtiENu1x_-107" vertex="1">
          <mxGeometry x="30" width="210" height="30" as="geometry">
            <mxRectangle width="210" height="30" as="alternateBounds" />
          </mxGeometry>
        </mxCell>
        <mxCell id="FIubQ1Pt_erhtiENu1x_-110" value="" style="shape=tableRow;horizontal=0;startSize=0;swimlaneHead=0;swimlaneBody=0;fillColor=none;collapsible=0;dropTarget=0;points=[[0,0.5],[1,0.5]];portConstraint=eastwest;top=0;left=0;right=0;bottom=0;fontStyle=1;strokeWidth=2;swimlaneFillColor=#E6E6E6;labelBackgroundColor=none;strokeColor=#FFFFFF;fontColor=#1A1A1A;rounded=0;" parent="FIubQ1Pt_erhtiENu1x_-27" vertex="1">
          <mxGeometry y="150" width="240" height="30" as="geometry" />
        </mxCell>
        <mxCell id="FIubQ1Pt_erhtiENu1x_-111" value="" style="shape=partialRectangle;connectable=0;fillColor=none;top=0;left=0;bottom=0;right=0;editable=1;overflow=hidden;whiteSpace=wrap;html=1;fontStyle=1;strokeWidth=2;swimlaneFillColor=#E6E6E6;labelBackgroundColor=none;strokeColor=#FFFFFF;fontColor=#1A1A1A;rounded=0;" parent="FIubQ1Pt_erhtiENu1x_-110" vertex="1">
          <mxGeometry width="30" height="30" as="geometry">
            <mxRectangle width="30" height="30" as="alternateBounds" />
          </mxGeometry>
        </mxCell>
        <mxCell id="FIubQ1Pt_erhtiENu1x_-112" value="content TEXT &lt;font color=&quot;#ff1900&quot;&gt;N.N&lt;/font&gt;" style="shape=partialRectangle;connectable=0;fillColor=none;top=0;left=0;bottom=0;right=0;align=left;spacingLeft=6;overflow=hidden;whiteSpace=wrap;html=1;fontStyle=1;strokeWidth=2;swimlaneFillColor=#E6E6E6;labelBackgroundColor=none;strokeColor=#FFFFFF;fontColor=#1A1A1A;rounded=0;" parent="FIubQ1Pt_erhtiENu1x_-110" vertex="1">
          <mxGeometry x="30" width="210" height="30" as="geometry">
            <mxRectangle width="210" height="30" as="alternateBounds" />
          </mxGeometry>
        </mxCell>
        <mxCell id="FIubQ1Pt_erhtiENu1x_-113" value="" style="shape=tableRow;horizontal=0;startSize=0;swimlaneHead=0;swimlaneBody=0;fillColor=none;collapsible=0;dropTarget=0;points=[[0,0.5],[1,0.5]];portConstraint=eastwest;top=0;left=0;right=0;bottom=0;fontStyle=1;strokeWidth=2;swimlaneFillColor=#E6E6E6;labelBackgroundColor=none;strokeColor=#FFFFFF;fontColor=#1A1A1A;rounded=0;" parent="FIubQ1Pt_erhtiENu1x_-27" vertex="1">
          <mxGeometry y="180" width="240" height="30" as="geometry" />
        </mxCell>
        <mxCell id="FIubQ1Pt_erhtiENu1x_-114" value="" style="shape=partialRectangle;connectable=0;fillColor=none;top=0;left=0;bottom=0;right=0;editable=1;overflow=hidden;whiteSpace=wrap;html=1;fontStyle=1;strokeWidth=2;swimlaneFillColor=#E6E6E6;labelBackgroundColor=none;strokeColor=#FFFFFF;fontColor=#1A1A1A;rounded=0;" parent="FIubQ1Pt_erhtiENu1x_-113" vertex="1">
          <mxGeometry width="30" height="30" as="geometry">
            <mxRectangle width="30" height="30" as="alternateBounds" />
          </mxGeometry>
        </mxCell>
        <mxCell id="FIubQ1Pt_erhtiENu1x_-115" value="viewcnt INT&amp;nbsp;DEFAULT 0" style="shape=partialRectangle;connectable=0;fillColor=none;top=0;left=0;bottom=0;right=0;align=left;spacingLeft=6;overflow=hidden;whiteSpace=wrap;html=1;fontStyle=1;strokeWidth=2;swimlaneFillColor=#E6E6E6;labelBackgroundColor=none;strokeColor=#FFFFFF;fontColor=#1A1A1A;rounded=0;" parent="FIubQ1Pt_erhtiENu1x_-113" vertex="1">
          <mxGeometry x="30" width="210" height="30" as="geometry">
            <mxRectangle width="210" height="30" as="alternateBounds" />
          </mxGeometry>
        </mxCell>
        <mxCell id="FIubQ1Pt_erhtiENu1x_-116" value="" style="shape=tableRow;horizontal=0;startSize=0;swimlaneHead=0;swimlaneBody=0;fillColor=none;collapsible=0;dropTarget=0;points=[[0,0.5],[1,0.5]];portConstraint=eastwest;top=0;left=0;right=0;bottom=0;fontStyle=1;strokeWidth=2;swimlaneFillColor=#E6E6E6;labelBackgroundColor=none;strokeColor=#FFFFFF;fontColor=#1A1A1A;rounded=0;" parent="FIubQ1Pt_erhtiENu1x_-27" vertex="1">
          <mxGeometry y="210" width="240" height="30" as="geometry" />
        </mxCell>
        <mxCell id="FIubQ1Pt_erhtiENu1x_-117" value="" style="shape=partialRectangle;connectable=0;fillColor=none;top=0;left=0;bottom=0;right=0;editable=1;overflow=hidden;whiteSpace=wrap;html=1;fontStyle=1;strokeWidth=2;swimlaneFillColor=#E6E6E6;labelBackgroundColor=none;strokeColor=#FFFFFF;fontColor=#1A1A1A;rounded=0;" parent="FIubQ1Pt_erhtiENu1x_-116" vertex="1">
          <mxGeometry width="30" height="30" as="geometry">
            <mxRectangle width="30" height="30" as="alternateBounds" />
          </mxGeometry>
        </mxCell>
        <mxCell id="FIubQ1Pt_erhtiENu1x_-118" value="regdate &lt;font style=&quot;font-size: 11px;&quot;&gt;DATETIME DEFAULT NOW()&lt;/font&gt;" style="shape=partialRectangle;connectable=0;fillColor=none;top=0;left=0;bottom=0;right=0;align=left;spacingLeft=6;overflow=hidden;whiteSpace=wrap;html=1;fontStyle=1;strokeWidth=2;swimlaneFillColor=#E6E6E6;labelBackgroundColor=none;strokeColor=#FFFFFF;fontColor=#1A1A1A;rounded=0;" parent="FIubQ1Pt_erhtiENu1x_-116" vertex="1">
          <mxGeometry x="30" width="210" height="30" as="geometry">
            <mxRectangle width="210" height="30" as="alternateBounds" />
          </mxGeometry>
        </mxCell>
        <mxCell id="FIubQ1Pt_erhtiENu1x_-120" value="" style="edgeStyle=entityRelationEdgeStyle;fontSize=12;html=1;endArrow=ERzeroToMany;startArrow=ERmandOne;rounded=0;strokeColor=#00CC00;fontColor=default;labelBackgroundColor=none;" parent="1" source="FIubQ1Pt_erhtiENu1x_-18" target="FIubQ1Pt_erhtiENu1x_-34" edge="1">
          <mxGeometry width="100" height="100" relative="1" as="geometry">
            <mxPoint x="160" y="309" as="sourcePoint" />
            <mxPoint x="280" y="564" as="targetPoint" />
            <Array as="points">
              <mxPoint x="-140" y="54" />
              <mxPoint x="-190" y="274" />
              <mxPoint x="400" y="609" />
              <mxPoint x="420" y="559" />
              <mxPoint x="190" y="634" />
              <mxPoint x="250" y="624" />
            </Array>
          </mxGeometry>
        </mxCell>
        <mxCell id="FIubQ1Pt_erhtiENu1x_-121" value="" style="edgeStyle=entityRelationEdgeStyle;fontSize=12;html=1;endArrow=ERzeroToMany;startArrow=ERmandOne;rounded=0;strokeColor=#00CC00;fontColor=default;labelBackgroundColor=none;" parent="1" source="FIubQ1Pt_erhtiENu1x_-5" target="FIubQ1Pt_erhtiENu1x_-37" edge="1">
          <mxGeometry width="100" height="100" relative="1" as="geometry">
            <mxPoint x="10" y="559" as="sourcePoint" />
            <mxPoint x="90" y="869" as="targetPoint" />
            <Array as="points">
              <mxPoint x="-330" y="274" />
              <mxPoint x="-380" y="494" />
              <mxPoint y="854" />
              <mxPoint x="60" y="844" />
            </Array>
          </mxGeometry>
        </mxCell>
        <mxCell id="yMgoRq2WjAfj9UwGe6Io-4" value="&lt;div style=&quot;text-align: left; font-size: 19px;&quot;&gt;&lt;font style=&quot;font-size: 19px; background-color: rgb(20, 20, 20);&quot; face=&quot;Helvetica&quot;&gt;&lt;font style=&quot;&quot; color=&quot;#ff1900&quot;&gt;N.N&lt;/font&gt; &lt;font style=&quot;&quot; color=&quot;#ffffff&quot;&gt;= NOT NULL&lt;/font&gt;&lt;/font&gt;&lt;/div&gt;&lt;div style=&quot;text-align: left; font-size: 19px;&quot;&gt;&lt;font style=&quot;font-size: 19px; background-color: rgb(20, 20, 20);&quot; face=&quot;Helvetica&quot;&gt;&lt;font style=&quot;&quot; color=&quot;#0000ff&quot;&gt;A.C&lt;/font&gt; &lt;font style=&quot;&quot; color=&quot;#ffffff&quot;&gt;=&amp;nbsp;AUTO_INCREMENT&lt;/font&gt;&lt;/font&gt;&lt;/div&gt;" style="text;strokeColor=none;fillColor=none;html=1;fontSize=20;fontStyle=1;verticalAlign=middle;align=center;fontFamily=Architects Daughter;rounded=0;labelBackgroundColor=none;fontColor=#1A1A1A;" parent="1" vertex="1">
          <mxGeometry x="-110" y="210" width="220" height="60" as="geometry" />
        </mxCell>
        <mxCell id="FIubQ1Pt_erhtiENu1x_-1" value="video" style="shape=table;startSize=30;container=1;collapsible=1;childLayout=tableLayout;fixedRows=1;rowLines=0;fontStyle=1;align=center;resizeLast=1;html=1;fillColor=#02BF53;strokeColor=##02BF53;strokeWidth=2;swimlaneFillColor=#E6E6E6;labelBackgroundColor=none;fontColor=#1A1A1A;rounded=0;" parent="1" vertex="1">
          <mxGeometry x="-420" y="460" width="240" height="271" as="geometry" />
        </mxCell>
        <mxCell id="FIubQ1Pt_erhtiENu1x_-5" value="" style="shape=tableRow;horizontal=0;startSize=0;swimlaneHead=0;swimlaneBody=0;fillColor=none;collapsible=0;dropTarget=0;points=[[0,0.5],[1,0.5]];portConstraint=eastwest;top=0;left=0;right=0;bottom=0;fontStyle=1;swimlaneFillColor=#E6E6E6;strokeWidth=2;labelBackgroundColor=none;strokeColor=#FFFFFF;fontColor=#1A1A1A;rounded=0;" parent="FIubQ1Pt_erhtiENu1x_-1" vertex="1">
          <mxGeometry y="30" width="240" height="30" as="geometry" />
        </mxCell>
        <mxCell id="FIubQ1Pt_erhtiENu1x_-6" value="&lt;i&gt;PK&lt;/i&gt;" style="shape=partialRectangle;connectable=0;fillColor=none;top=0;left=0;bottom=0;right=0;editable=1;overflow=hidden;whiteSpace=wrap;html=1;fontStyle=1;swimlaneFillColor=#E6E6E6;strokeWidth=2;labelBackgroundColor=none;strokeColor=#FFFFFF;fontColor=#1A1A1A;rounded=0;" parent="FIubQ1Pt_erhtiENu1x_-5" vertex="1">
          <mxGeometry width="30" height="30" as="geometry">
            <mxRectangle width="30" height="30" as="alternateBounds" />
          </mxGeometry>
        </mxCell>
        <mxCell id="FIubQ1Pt_erhtiENu1x_-7" value="video_id INT &lt;font color=&quot;#0000ff&quot;&gt;A.C&lt;/font&gt; &lt;font color=&quot;#ff1900&quot;&gt;N.N&lt;/font&gt;" style="shape=partialRectangle;connectable=0;fillColor=none;top=0;left=0;bottom=0;right=0;align=left;spacingLeft=6;overflow=hidden;whiteSpace=wrap;html=1;fontStyle=1;swimlaneFillColor=#E6E6E6;strokeWidth=2;labelBackgroundColor=none;strokeColor=#FFFFFF;fontColor=#1A1A1A;rounded=0;" parent="FIubQ1Pt_erhtiENu1x_-5" vertex="1">
          <mxGeometry x="30" width="210" height="30" as="geometry">
            <mxRectangle width="210" height="30" as="alternateBounds" />
          </mxGeometry>
        </mxCell>
        <mxCell id="FIubQ1Pt_erhtiENu1x_-95" value="" style="shape=tableRow;horizontal=0;startSize=0;swimlaneHead=0;swimlaneBody=0;fillColor=none;collapsible=0;dropTarget=0;points=[[0,0.5],[1,0.5]];portConstraint=eastwest;top=0;left=0;right=0;bottom=0;fontStyle=1;swimlaneFillColor=#E6E6E6;strokeWidth=2;labelBackgroundColor=none;strokeColor=#FFFFFF;fontColor=#1A1A1A;rounded=0;" parent="FIubQ1Pt_erhtiENu1x_-1" vertex="1">
          <mxGeometry y="60" width="240" height="30" as="geometry" />
        </mxCell>
        <mxCell id="FIubQ1Pt_erhtiENu1x_-96" value="" style="shape=partialRectangle;connectable=0;fillColor=none;top=0;left=0;bottom=0;right=0;editable=1;overflow=hidden;whiteSpace=wrap;html=1;fontStyle=1;swimlaneFillColor=#E6E6E6;strokeWidth=2;labelBackgroundColor=none;strokeColor=#FFFFFF;fontColor=#1A1A1A;rounded=0;" parent="FIubQ1Pt_erhtiENu1x_-95" vertex="1">
          <mxGeometry width="30" height="30" as="geometry">
            <mxRectangle width="30" height="30" as="alternateBounds" />
          </mxGeometry>
        </mxCell>
        <mxCell id="FIubQ1Pt_erhtiENu1x_-97" value="title VARCHAR(300) &lt;font color=&quot;#ff1900&quot;&gt;N.N&lt;/font&gt;" style="shape=partialRectangle;connectable=0;fillColor=none;top=0;left=0;bottom=0;right=0;align=left;spacingLeft=6;overflow=hidden;whiteSpace=wrap;html=1;fontStyle=1;swimlaneFillColor=#E6E6E6;strokeWidth=2;labelBackgroundColor=none;strokeColor=#FFFFFF;fontColor=#1A1A1A;rounded=0;" parent="FIubQ1Pt_erhtiENu1x_-95" vertex="1">
          <mxGeometry x="30" width="210" height="30" as="geometry">
            <mxRectangle width="210" height="30" as="alternateBounds" />
          </mxGeometry>
        </mxCell>
        <mxCell id="FIubQ1Pt_erhtiENu1x_-8" value="" style="shape=tableRow;horizontal=0;startSize=0;swimlaneHead=0;swimlaneBody=0;fillColor=none;collapsible=0;dropTarget=0;points=[[0,0.5],[1,0.5]];portConstraint=eastwest;top=0;left=0;right=0;bottom=0;fontStyle=1;swimlaneFillColor=#E6E6E6;strokeWidth=2;labelBackgroundColor=none;strokeColor=#FFFFFF;fontColor=#1A1A1A;rounded=0;" parent="FIubQ1Pt_erhtiENu1x_-1" vertex="1">
          <mxGeometry y="90" width="240" height="30" as="geometry" />
        </mxCell>
        <mxCell id="FIubQ1Pt_erhtiENu1x_-9" value="" style="shape=partialRectangle;connectable=0;fillColor=none;top=0;left=0;bottom=0;right=0;editable=1;overflow=hidden;whiteSpace=wrap;html=1;fontStyle=1;swimlaneFillColor=#E6E6E6;strokeWidth=2;labelBackgroundColor=none;strokeColor=#FFFFFF;fontColor=#1A1A1A;rounded=0;" parent="FIubQ1Pt_erhtiENu1x_-8" vertex="1">
          <mxGeometry width="30" height="30" as="geometry">
            <mxRectangle width="30" height="30" as="alternateBounds" />
          </mxGeometry>
        </mxCell>
        <mxCell id="FIubQ1Pt_erhtiENu1x_-10" value="content TEXT &lt;font color=&quot;#ff1900&quot;&gt;N.N&lt;/font&gt;" style="shape=partialRectangle;connectable=0;fillColor=none;top=0;left=0;bottom=0;right=0;align=left;spacingLeft=6;overflow=hidden;whiteSpace=wrap;html=1;fontStyle=1;swimlaneFillColor=#E6E6E6;strokeWidth=2;labelBackgroundColor=none;strokeColor=#FFFFFF;fontColor=#1A1A1A;rounded=0;" parent="FIubQ1Pt_erhtiENu1x_-8" vertex="1">
          <mxGeometry x="30" width="210" height="30" as="geometry">
            <mxRectangle width="210" height="30" as="alternateBounds" />
          </mxGeometry>
        </mxCell>
        <mxCell id="FIubQ1Pt_erhtiENu1x_-11" value="" style="shape=tableRow;horizontal=0;startSize=0;swimlaneHead=0;swimlaneBody=0;fillColor=none;collapsible=0;dropTarget=0;points=[[0,0.5],[1,0.5]];portConstraint=eastwest;top=0;left=0;right=0;bottom=0;fontStyle=1;swimlaneFillColor=#E6E6E6;strokeWidth=2;labelBackgroundColor=none;strokeColor=#FFFFFF;fontColor=#1A1A1A;rounded=0;" parent="FIubQ1Pt_erhtiENu1x_-1" vertex="1">
          <mxGeometry y="120" width="240" height="30" as="geometry" />
        </mxCell>
        <mxCell id="FIubQ1Pt_erhtiENu1x_-12" value="" style="shape=partialRectangle;connectable=0;fillColor=none;top=0;left=0;bottom=0;right=0;editable=1;overflow=hidden;whiteSpace=wrap;html=1;fontStyle=1;swimlaneFillColor=#E6E6E6;strokeWidth=2;labelBackgroundColor=none;strokeColor=#FFFFFF;fontColor=#1A1A1A;rounded=0;" parent="FIubQ1Pt_erhtiENu1x_-11" vertex="1">
          <mxGeometry width="30" height="30" as="geometry">
            <mxRectangle width="30" height="30" as="alternateBounds" />
          </mxGeometry>
        </mxCell>
        <mxCell id="FIubQ1Pt_erhtiENu1x_-13" value="part VARCHAR(300) &lt;font color=&quot;#ff1900&quot;&gt;N.N&lt;/font&gt;" style="shape=partialRectangle;connectable=0;fillColor=none;top=0;left=0;bottom=0;right=0;align=left;spacingLeft=6;overflow=hidden;whiteSpace=wrap;html=1;fontStyle=1;swimlaneFillColor=#E6E6E6;strokeWidth=2;labelBackgroundColor=none;strokeColor=#FFFFFF;fontColor=#1A1A1A;rounded=0;" parent="FIubQ1Pt_erhtiENu1x_-11" vertex="1">
          <mxGeometry x="30" width="210" height="30" as="geometry">
            <mxRectangle width="210" height="30" as="alternateBounds" />
          </mxGeometry>
        </mxCell>
        <mxCell id="FIubQ1Pt_erhtiENu1x_-98" value="" style="shape=tableRow;horizontal=0;startSize=0;swimlaneHead=0;swimlaneBody=0;fillColor=none;collapsible=0;dropTarget=0;points=[[0,0.5],[1,0.5]];portConstraint=eastwest;top=0;left=0;right=0;bottom=0;fontStyle=1;swimlaneFillColor=#E6E6E6;strokeWidth=2;labelBackgroundColor=none;strokeColor=#FFFFFF;fontColor=#1A1A1A;rounded=0;" parent="FIubQ1Pt_erhtiENu1x_-1" vertex="1">
          <mxGeometry y="150" width="240" height="30" as="geometry" />
        </mxCell>
        <mxCell id="FIubQ1Pt_erhtiENu1x_-99" value="" style="shape=partialRectangle;connectable=0;fillColor=none;top=0;left=0;bottom=0;right=0;editable=1;overflow=hidden;whiteSpace=wrap;html=1;fontStyle=1;swimlaneFillColor=#E6E6E6;strokeWidth=2;labelBackgroundColor=none;strokeColor=#FFFFFF;fontColor=#1A1A1A;rounded=0;" parent="FIubQ1Pt_erhtiENu1x_-98" vertex="1">
          <mxGeometry width="30" height="30" as="geometry">
            <mxRectangle width="30" height="30" as="alternateBounds" />
          </mxGeometry>
        </mxCell>
        <mxCell id="FIubQ1Pt_erhtiENu1x_-100" value="creator VARCHAR(300) &lt;font color=&quot;#ff1900&quot;&gt;N.N&lt;/font&gt;" style="shape=partialRectangle;connectable=0;fillColor=none;top=0;left=0;bottom=0;right=0;align=left;spacingLeft=6;overflow=hidden;whiteSpace=wrap;html=1;fontStyle=1;swimlaneFillColor=#E6E6E6;strokeWidth=2;labelBackgroundColor=none;strokeColor=#FFFFFF;fontColor=#1A1A1A;rounded=0;" parent="FIubQ1Pt_erhtiENu1x_-98" vertex="1">
          <mxGeometry x="30" width="210" height="30" as="geometry">
            <mxRectangle width="210" height="30" as="alternateBounds" />
          </mxGeometry>
        </mxCell>
        <mxCell id="hFQfOye21rlXiQXaYDEz-26" value="" style="shape=tableRow;horizontal=0;startSize=0;swimlaneHead=0;swimlaneBody=0;fillColor=none;collapsible=0;dropTarget=0;points=[[0,0.5],[1,0.5]];portConstraint=eastwest;top=0;left=0;right=0;bottom=0;fontStyle=1;swimlaneFillColor=#E6E6E6;strokeWidth=2;labelBackgroundColor=none;strokeColor=#FFFFFF;fontColor=#1A1A1A;rounded=0;" parent="FIubQ1Pt_erhtiENu1x_-1" vertex="1">
          <mxGeometry y="180" width="240" height="30" as="geometry" />
        </mxCell>
        <mxCell id="hFQfOye21rlXiQXaYDEz-27" value="" style="shape=partialRectangle;connectable=0;fillColor=none;top=0;left=0;bottom=0;right=0;editable=1;overflow=hidden;whiteSpace=wrap;html=1;fontStyle=1;swimlaneFillColor=#E6E6E6;strokeWidth=2;labelBackgroundColor=none;strokeColor=#FFFFFF;fontColor=#1A1A1A;rounded=0;" parent="hFQfOye21rlXiQXaYDEz-26" vertex="1">
          <mxGeometry width="30" height="30" as="geometry">
            <mxRectangle width="30" height="30" as="alternateBounds" />
          </mxGeometry>
        </mxCell>
        <mxCell id="hFQfOye21rlXiQXaYDEz-28" value="link VARCHAR(300) &lt;font color=&quot;#ff1900&quot;&gt;N.N&lt;/font&gt;" style="shape=partialRectangle;connectable=0;fillColor=none;top=0;left=0;bottom=0;right=0;align=left;spacingLeft=6;overflow=hidden;whiteSpace=wrap;html=1;fontStyle=1;swimlaneFillColor=#E6E6E6;strokeWidth=2;labelBackgroundColor=none;strokeColor=#FFFFFF;fontColor=#1A1A1A;rounded=0;" parent="hFQfOye21rlXiQXaYDEz-26" vertex="1">
          <mxGeometry x="30" width="210" height="30" as="geometry">
            <mxRectangle width="210" height="30" as="alternateBounds" />
          </mxGeometry>
        </mxCell>
        <mxCell id="hFQfOye21rlXiQXaYDEz-35" value="" style="shape=tableRow;horizontal=0;startSize=0;swimlaneHead=0;swimlaneBody=0;fillColor=none;collapsible=0;dropTarget=0;points=[[0,0.5],[1,0.5]];portConstraint=eastwest;top=0;left=0;right=0;bottom=0;fontStyle=1;swimlaneFillColor=#E6E6E6;strokeWidth=2;labelBackgroundColor=none;strokeColor=#FFFFFF;fontColor=#1A1A1A;rounded=0;" parent="FIubQ1Pt_erhtiENu1x_-1" vertex="1">
          <mxGeometry y="210" width="240" height="30" as="geometry" />
        </mxCell>
        <mxCell id="hFQfOye21rlXiQXaYDEz-36" value="" style="shape=partialRectangle;connectable=0;fillColor=none;top=0;left=0;bottom=0;right=0;editable=1;overflow=hidden;whiteSpace=wrap;html=1;fontStyle=1;swimlaneFillColor=#E6E6E6;strokeWidth=2;labelBackgroundColor=none;strokeColor=#FFFFFF;fontColor=#1A1A1A;rounded=0;" parent="hFQfOye21rlXiQXaYDEz-35" vertex="1">
          <mxGeometry width="30" height="30" as="geometry">
            <mxRectangle width="30" height="30" as="alternateBounds" />
          </mxGeometry>
        </mxCell>
        <mxCell id="hFQfOye21rlXiQXaYDEz-37" value="viewcnt INT DEFAULT 0" style="shape=partialRectangle;connectable=0;fillColor=none;top=0;left=0;bottom=0;right=0;align=left;spacingLeft=6;overflow=hidden;whiteSpace=wrap;html=1;fontStyle=1;swimlaneFillColor=#E6E6E6;strokeWidth=2;labelBackgroundColor=none;strokeColor=#FFFFFF;fontColor=#1A1A1A;rounded=0;" parent="hFQfOye21rlXiQXaYDEz-35" vertex="1">
          <mxGeometry x="30" width="210" height="30" as="geometry">
            <mxRectangle width="210" height="30" as="alternateBounds" />
          </mxGeometry>
        </mxCell>
        <mxCell id="FIubQ1Pt_erhtiENu1x_-101" value="" style="shape=tableRow;horizontal=0;startSize=0;swimlaneHead=0;swimlaneBody=0;fillColor=none;collapsible=0;dropTarget=0;points=[[0,0.5],[1,0.5]];portConstraint=eastwest;top=0;left=0;right=0;bottom=0;fontStyle=1;swimlaneFillColor=#E6E6E6;strokeWidth=2;labelBackgroundColor=none;strokeColor=#FFFFFF;fontColor=#1A1A1A;rounded=0;" parent="FIubQ1Pt_erhtiENu1x_-1" vertex="1">
          <mxGeometry y="240" width="240" height="31" as="geometry" />
        </mxCell>
        <mxCell id="FIubQ1Pt_erhtiENu1x_-102" value="" style="shape=partialRectangle;connectable=0;fillColor=none;top=0;left=0;bottom=0;right=0;editable=1;overflow=hidden;whiteSpace=wrap;html=1;fontStyle=1;swimlaneFillColor=#E6E6E6;strokeWidth=2;labelBackgroundColor=none;strokeColor=#FFFFFF;fontColor=#1A1A1A;rounded=0;" parent="FIubQ1Pt_erhtiENu1x_-101" vertex="1">
          <mxGeometry width="30" height="31" as="geometry">
            <mxRectangle width="30" height="31" as="alternateBounds" />
          </mxGeometry>
        </mxCell>
        <mxCell id="FIubQ1Pt_erhtiENu1x_-103" value="regdate &lt;font style=&quot;font-size: 11px;&quot;&gt;DATETIME DEFAULT NOW()&lt;/font&gt;" style="shape=partialRectangle;connectable=0;fillColor=none;top=0;left=0;bottom=0;right=0;align=left;spacingLeft=6;overflow=hidden;whiteSpace=wrap;html=1;fontStyle=1;swimlaneFillColor=#E6E6E6;strokeWidth=2;labelBackgroundColor=none;strokeColor=#FFFFFF;fontColor=#1A1A1A;rounded=0;" parent="FIubQ1Pt_erhtiENu1x_-101" vertex="1">
          <mxGeometry x="30" width="210" height="31" as="geometry">
            <mxRectangle width="210" height="31" as="alternateBounds" />
          </mxGeometry>
        </mxCell>
        <mxCell id="hFQfOye21rlXiQXaYDEz-4" value="wishlist" style="shape=table;startSize=30;container=1;collapsible=1;childLayout=tableLayout;fixedRows=1;rowLines=0;fontStyle=1;align=center;resizeLast=1;html=1;fillColor=#02BF53;strokeColor=##02BF53;strokeWidth=2;swimlaneFillColor=#E6E6E6;labelBackgroundColor=none;fontColor=#1A1A1A;rounded=0;" parent="1" vertex="1">
          <mxGeometry x="174" y="430" width="240" height="120" as="geometry" />
        </mxCell>
        <mxCell id="hFQfOye21rlXiQXaYDEz-5" value="" style="shape=tableRow;horizontal=0;startSize=0;swimlaneHead=0;swimlaneBody=0;fillColor=none;collapsible=0;dropTarget=0;points=[[0,0.5],[1,0.5]];portConstraint=eastwest;top=0;left=0;right=0;bottom=0;fontStyle=1;strokeWidth=2;swimlaneFillColor=#E6E6E6;labelBackgroundColor=none;strokeColor=#FFFFFF;fontColor=#1A1A1A;rounded=0;" parent="hFQfOye21rlXiQXaYDEz-4" vertex="1">
          <mxGeometry y="30" width="240" height="30" as="geometry" />
        </mxCell>
        <mxCell id="hFQfOye21rlXiQXaYDEz-6" value="&lt;i&gt;PK&lt;/i&gt;" style="shape=partialRectangle;connectable=0;fillColor=none;top=0;left=0;bottom=0;right=0;editable=1;overflow=hidden;whiteSpace=wrap;html=1;fontStyle=1;strokeWidth=2;swimlaneFillColor=#E6E6E6;labelBackgroundColor=none;strokeColor=#FFFFFF;fontColor=#1A1A1A;rounded=0;" parent="hFQfOye21rlXiQXaYDEz-5" vertex="1">
          <mxGeometry width="30" height="30" as="geometry">
            <mxRectangle width="30" height="30" as="alternateBounds" />
          </mxGeometry>
        </mxCell>
        <mxCell id="hFQfOye21rlXiQXaYDEz-7" value="wishilist_id INT &lt;font color=&quot;#0000ff&quot;&gt;A.C&lt;/font&gt; &lt;font color=&quot;#ff1900&quot;&gt;N.N&lt;/font&gt;" style="shape=partialRectangle;connectable=0;fillColor=none;top=0;left=0;bottom=0;right=0;align=left;spacingLeft=6;overflow=hidden;whiteSpace=wrap;html=1;fontStyle=1;strokeWidth=2;swimlaneFillColor=#E6E6E6;labelBackgroundColor=none;strokeColor=#FFFFFF;fontColor=#1A1A1A;rounded=0;" parent="hFQfOye21rlXiQXaYDEz-5" vertex="1">
          <mxGeometry x="30" width="210" height="30" as="geometry">
            <mxRectangle width="210" height="30" as="alternateBounds" />
          </mxGeometry>
        </mxCell>
        <mxCell id="hFQfOye21rlXiQXaYDEz-8" value="" style="shape=tableRow;horizontal=0;startSize=0;swimlaneHead=0;swimlaneBody=0;fillColor=none;collapsible=0;dropTarget=0;points=[[0,0.5],[1,0.5]];portConstraint=eastwest;top=0;left=0;right=0;bottom=0;fontStyle=1;strokeWidth=2;swimlaneFillColor=#E6E6E6;labelBackgroundColor=none;strokeColor=#FFFFFF;fontColor=#1A1A1A;rounded=0;" parent="hFQfOye21rlXiQXaYDEz-4" vertex="1">
          <mxGeometry y="60" width="240" height="30" as="geometry" />
        </mxCell>
        <mxCell id="hFQfOye21rlXiQXaYDEz-9" value="&lt;i&gt;FK&lt;/i&gt;" style="shape=partialRectangle;connectable=0;fillColor=none;top=0;left=0;bottom=0;right=0;editable=1;overflow=hidden;whiteSpace=wrap;html=1;fontStyle=1;strokeWidth=2;swimlaneFillColor=#E6E6E6;labelBackgroundColor=none;strokeColor=#FFFFFF;fontColor=#1A1A1A;rounded=0;" parent="hFQfOye21rlXiQXaYDEz-8" vertex="1">
          <mxGeometry width="30" height="30" as="geometry">
            <mxRectangle width="30" height="30" as="alternateBounds" />
          </mxGeometry>
        </mxCell>
        <mxCell id="hFQfOye21rlXiQXaYDEz-10" value="user_id VARCHAR(50) &lt;font color=&quot;#ff1900&quot;&gt;N.N&lt;/font&gt;" style="shape=partialRectangle;connectable=0;fillColor=none;top=0;left=0;bottom=0;right=0;align=left;spacingLeft=6;overflow=hidden;whiteSpace=wrap;html=1;fontStyle=1;strokeWidth=2;swimlaneFillColor=#E6E6E6;labelBackgroundColor=none;strokeColor=#FFFFFF;fontColor=#1A1A1A;rounded=0;" parent="hFQfOye21rlXiQXaYDEz-8" vertex="1">
          <mxGeometry x="30" width="210" height="30" as="geometry">
            <mxRectangle width="210" height="30" as="alternateBounds" />
          </mxGeometry>
        </mxCell>
        <mxCell id="hFQfOye21rlXiQXaYDEz-11" value="" style="shape=tableRow;horizontal=0;startSize=0;swimlaneHead=0;swimlaneBody=0;fillColor=none;collapsible=0;dropTarget=0;points=[[0,0.5],[1,0.5]];portConstraint=eastwest;top=0;left=0;right=0;bottom=0;fontStyle=1;strokeWidth=2;swimlaneFillColor=#E6E6E6;labelBackgroundColor=none;strokeColor=#FFFFFF;fontColor=#1A1A1A;rounded=0;" parent="hFQfOye21rlXiQXaYDEz-4" vertex="1">
          <mxGeometry y="90" width="240" height="30" as="geometry" />
        </mxCell>
        <mxCell id="hFQfOye21rlXiQXaYDEz-12" value="&lt;i&gt;FK&lt;/i&gt;" style="shape=partialRectangle;connectable=0;fillColor=none;top=0;left=0;bottom=0;right=0;editable=1;overflow=hidden;whiteSpace=wrap;html=1;fontStyle=1;strokeWidth=2;swimlaneFillColor=#E6E6E6;labelBackgroundColor=none;strokeColor=#FFFFFF;fontColor=#1A1A1A;rounded=0;" parent="hFQfOye21rlXiQXaYDEz-11" vertex="1">
          <mxGeometry width="30" height="30" as="geometry">
            <mxRectangle width="30" height="30" as="alternateBounds" />
          </mxGeometry>
        </mxCell>
        <mxCell id="hFQfOye21rlXiQXaYDEz-13" value="video_id INT&amp;nbsp;&lt;font color=&quot;#ff1900&quot;&gt;N.N&lt;/font&gt;" style="shape=partialRectangle;connectable=0;fillColor=none;top=0;left=0;bottom=0;right=0;align=left;spacingLeft=6;overflow=hidden;whiteSpace=wrap;html=1;fontStyle=1;strokeWidth=2;swimlaneFillColor=#E6E6E6;labelBackgroundColor=none;strokeColor=#FFFFFF;fontColor=#1A1A1A;rounded=0;" parent="hFQfOye21rlXiQXaYDEz-11" vertex="1">
          <mxGeometry x="30" width="210" height="30" as="geometry">
            <mxRectangle width="210" height="30" as="alternateBounds" />
          </mxGeometry>
        </mxCell>
        <mxCell id="n0RXdR-9GEpzhPtAqROj-1" value="" style="edgeStyle=entityRelationEdgeStyle;fontSize=12;html=1;endArrow=ERzeroToMany;startArrow=ERmandOne;rounded=0;strokeColor=#00CC00;fontColor=default;labelBackgroundColor=none;" parent="1" source="FIubQ1Pt_erhtiENu1x_-18" target="hFQfOye21rlXiQXaYDEz-8" edge="1">
          <mxGeometry width="100" height="100" relative="1" as="geometry">
            <mxPoint x="-200" y="449" as="sourcePoint" />
            <mxPoint x="67" y="719" as="targetPoint" />
            <Array as="points">
              <mxPoint x="-410" y="619" />
              <mxPoint x="-420" y="689" />
              <mxPoint x="-500" y="194" />
              <mxPoint x="-550" y="414" />
              <mxPoint x="40" y="749" />
              <mxPoint x="60" y="699" />
              <mxPoint x="-170" y="774" />
              <mxPoint x="-110" y="764" />
            </Array>
          </mxGeometry>
        </mxCell>
        <mxCell id="n0RXdR-9GEpzhPtAqROj-3" value="" style="edgeStyle=entityRelationEdgeStyle;fontSize=12;html=1;endArrow=ERzeroToMany;startArrow=ERmandOne;rounded=0;strokeColor=#00CC00;fontColor=default;labelBackgroundColor=none;" parent="1" source="FIubQ1Pt_erhtiENu1x_-5" target="hFQfOye21rlXiQXaYDEz-11" edge="1">
          <mxGeometry width="100" height="100" relative="1" as="geometry">
            <mxPoint x="-170" y="639" as="sourcePoint" />
            <mxPoint x="87" y="479" as="targetPoint" />
            <Array as="points">
              <mxPoint x="-630" y="159" />
              <mxPoint x="-390" y="424" />
              <mxPoint x="-680" y="379" />
              <mxPoint x="-300" y="739" />
              <mxPoint x="-240" y="729" />
            </Array>
          </mxGeometry>
        </mxCell>
        <mxCell id="ilQEFmbFwKG2EETpm8rQ-4" value="video_like" style="shape=table;startSize=30;container=1;collapsible=1;childLayout=tableLayout;fixedRows=1;rowLines=0;fontStyle=1;align=center;resizeLast=1;html=1;fillColor=#02BF53;strokeColor=##02BF53;strokeWidth=2;swimlaneFillColor=#E6E6E6;labelBackgroundColor=none;fontColor=#1A1A1A;rounded=0;" parent="1" vertex="1">
          <mxGeometry x="174" y="280" width="240" height="120" as="geometry" />
        </mxCell>
        <mxCell id="ilQEFmbFwKG2EETpm8rQ-5" value="" style="shape=tableRow;horizontal=0;startSize=0;swimlaneHead=0;swimlaneBody=0;fillColor=none;collapsible=0;dropTarget=0;points=[[0,0.5],[1,0.5]];portConstraint=eastwest;top=0;left=0;right=0;bottom=0;fontStyle=1;strokeWidth=2;swimlaneFillColor=#E6E6E6;labelBackgroundColor=none;strokeColor=#FFFFFF;fontColor=#1A1A1A;rounded=0;" parent="ilQEFmbFwKG2EETpm8rQ-4" vertex="1">
          <mxGeometry y="30" width="240" height="30" as="geometry" />
        </mxCell>
        <mxCell id="ilQEFmbFwKG2EETpm8rQ-6" value="&lt;i style=&quot;&quot;&gt;PK&lt;/i&gt;" style="shape=partialRectangle;connectable=0;fillColor=none;top=0;left=0;bottom=0;right=0;editable=1;overflow=hidden;whiteSpace=wrap;html=1;fontStyle=1;strokeWidth=2;swimlaneFillColor=#E6E6E6;labelBackgroundColor=none;strokeColor=#FFFFFF;fontColor=#1A1A1A;rounded=0;" parent="ilQEFmbFwKG2EETpm8rQ-5" vertex="1">
          <mxGeometry width="30" height="30" as="geometry">
            <mxRectangle width="30" height="30" as="alternateBounds" />
          </mxGeometry>
        </mxCell>
        <mxCell id="ilQEFmbFwKG2EETpm8rQ-7" value="video_like_id INT &lt;font color=&quot;#0000ff&quot;&gt;A.C&lt;/font&gt; &lt;font color=&quot;#ff1900&quot;&gt;N.N&lt;/font&gt;" style="shape=partialRectangle;connectable=0;fillColor=none;top=0;left=0;bottom=0;right=0;align=left;spacingLeft=6;overflow=hidden;whiteSpace=wrap;html=1;fontStyle=1;strokeWidth=2;swimlaneFillColor=#E6E6E6;labelBackgroundColor=none;strokeColor=#FFFFFF;fontColor=#1A1A1A;rounded=0;" parent="ilQEFmbFwKG2EETpm8rQ-5" vertex="1">
          <mxGeometry x="30" width="210" height="30" as="geometry">
            <mxRectangle width="210" height="30" as="alternateBounds" />
          </mxGeometry>
        </mxCell>
        <mxCell id="ilQEFmbFwKG2EETpm8rQ-8" value="" style="shape=tableRow;horizontal=0;startSize=0;swimlaneHead=0;swimlaneBody=0;fillColor=none;collapsible=0;dropTarget=0;points=[[0,0.5],[1,0.5]];portConstraint=eastwest;top=0;left=0;right=0;bottom=0;fontStyle=1;strokeWidth=2;swimlaneFillColor=#E6E6E6;labelBackgroundColor=none;strokeColor=#FFFFFF;fontColor=#1A1A1A;rounded=0;" parent="ilQEFmbFwKG2EETpm8rQ-4" vertex="1">
          <mxGeometry y="60" width="240" height="30" as="geometry" />
        </mxCell>
        <mxCell id="ilQEFmbFwKG2EETpm8rQ-9" value="&lt;i&gt;FK&lt;/i&gt;" style="shape=partialRectangle;connectable=0;fillColor=none;top=0;left=0;bottom=0;right=0;editable=1;overflow=hidden;whiteSpace=wrap;html=1;fontStyle=1;strokeWidth=2;swimlaneFillColor=#E6E6E6;labelBackgroundColor=none;strokeColor=#FFFFFF;fontColor=#1A1A1A;rounded=0;" parent="ilQEFmbFwKG2EETpm8rQ-8" vertex="1">
          <mxGeometry width="30" height="30" as="geometry">
            <mxRectangle width="30" height="30" as="alternateBounds" />
          </mxGeometry>
        </mxCell>
        <mxCell id="ilQEFmbFwKG2EETpm8rQ-10" value="user_id VARCHAR(50) &lt;font color=&quot;#ff1900&quot;&gt;N.N&lt;/font&gt;" style="shape=partialRectangle;connectable=0;fillColor=none;top=0;left=0;bottom=0;right=0;align=left;spacingLeft=6;overflow=hidden;whiteSpace=wrap;html=1;fontStyle=1;strokeWidth=2;swimlaneFillColor=#E6E6E6;labelBackgroundColor=none;strokeColor=#FFFFFF;fontColor=#1A1A1A;rounded=0;" parent="ilQEFmbFwKG2EETpm8rQ-8" vertex="1">
          <mxGeometry x="30" width="210" height="30" as="geometry">
            <mxRectangle width="210" height="30" as="alternateBounds" />
          </mxGeometry>
        </mxCell>
        <mxCell id="ilQEFmbFwKG2EETpm8rQ-11" value="" style="shape=tableRow;horizontal=0;startSize=0;swimlaneHead=0;swimlaneBody=0;fillColor=none;collapsible=0;dropTarget=0;points=[[0,0.5],[1,0.5]];portConstraint=eastwest;top=0;left=0;right=0;bottom=0;fontStyle=1;strokeWidth=2;swimlaneFillColor=#E6E6E6;labelBackgroundColor=none;strokeColor=#FFFFFF;fontColor=#1A1A1A;rounded=0;" parent="ilQEFmbFwKG2EETpm8rQ-4" vertex="1">
          <mxGeometry y="90" width="240" height="30" as="geometry" />
        </mxCell>
        <mxCell id="ilQEFmbFwKG2EETpm8rQ-12" value="&lt;i&gt;FK&lt;/i&gt;" style="shape=partialRectangle;connectable=0;fillColor=none;top=0;left=0;bottom=0;right=0;editable=1;overflow=hidden;whiteSpace=wrap;html=1;fontStyle=1;strokeWidth=2;swimlaneFillColor=#E6E6E6;labelBackgroundColor=none;strokeColor=#FFFFFF;fontColor=#1A1A1A;rounded=0;" parent="ilQEFmbFwKG2EETpm8rQ-11" vertex="1">
          <mxGeometry width="30" height="30" as="geometry">
            <mxRectangle width="30" height="30" as="alternateBounds" />
          </mxGeometry>
        </mxCell>
        <mxCell id="ilQEFmbFwKG2EETpm8rQ-13" value="video_id INT&amp;nbsp;&lt;font color=&quot;#ff1900&quot;&gt;N.N&lt;/font&gt;" style="shape=partialRectangle;connectable=0;fillColor=none;top=0;left=0;bottom=0;right=0;align=left;spacingLeft=6;overflow=hidden;whiteSpace=wrap;html=1;fontStyle=1;strokeWidth=2;swimlaneFillColor=#E6E6E6;labelBackgroundColor=none;strokeColor=#FFFFFF;fontColor=#1A1A1A;rounded=0;" parent="ilQEFmbFwKG2EETpm8rQ-11" vertex="1">
          <mxGeometry x="30" width="210" height="30" as="geometry">
            <mxRectangle width="210" height="30" as="alternateBounds" />
          </mxGeometry>
        </mxCell>
        <mxCell id="ilQEFmbFwKG2EETpm8rQ-14" value="" style="edgeStyle=entityRelationEdgeStyle;fontSize=12;html=1;endArrow=ERzeroToMany;startArrow=ERmandOne;rounded=0;strokeColor=#00CC00;fontColor=default;labelBackgroundColor=none;" parent="1" source="FIubQ1Pt_erhtiENu1x_-18" target="ilQEFmbFwKG2EETpm8rQ-8" edge="1">
          <mxGeometry width="100" height="100" relative="1" as="geometry">
            <mxPoint x="-580" y="740" as="sourcePoint" />
            <mxPoint x="-570" y="560" as="targetPoint" />
            <Array as="points">
              <mxPoint x="-620" y="169" />
              <mxPoint x="-380" y="434" />
              <mxPoint x="-670" y="389" />
              <mxPoint x="-290" y="749" />
              <mxPoint x="-230" y="739" />
            </Array>
          </mxGeometry>
        </mxCell>
        <mxCell id="ilQEFmbFwKG2EETpm8rQ-15" value="" style="edgeStyle=entityRelationEdgeStyle;fontSize=12;html=1;endArrow=ERzeroToMany;startArrow=ERmandOne;rounded=0;strokeColor=#00CC00;fontColor=default;labelBackgroundColor=none;" parent="1" source="FIubQ1Pt_erhtiENu1x_-5" target="ilQEFmbFwKG2EETpm8rQ-11" edge="1">
          <mxGeometry width="100" height="100" relative="1" as="geometry">
            <mxPoint x="-580" y="700" as="sourcePoint" />
            <mxPoint x="-700" y="535" as="targetPoint" />
            <Array as="points">
              <mxPoint x="-1130" y="110" />
              <mxPoint x="-890" y="375" />
              <mxPoint x="-1180" y="330" />
              <mxPoint x="-800" y="690" />
              <mxPoint x="-740" y="680" />
            </Array>
          </mxGeometry>
        </mxCell>
      </root>
    </mxGraphModel>
  </diagram>
</mxfile>
